<svg xmlns="http://www.w3.org/2000/svg" version="1.0" width="1200.000000pt" height="1200.000000pt" viewBox="0 0 1200.000000 1200.000000" preserveAspectRatio="xMidYMid meet">

<g transform="translate(0.000000,1200.000000) scale(0.100000,-0.100000)" fill="#000000" stroke="none">
<path d="M4445 7228 c-3 -7 -4 -564 -3 -1238 3 -1157 4 -1225 21 -1228 16 -3 17 61 17 1237 0 1108 -2 1241 -15 1241 -9 0 -18 -6 -20 -12z"/>
<path d="M1814 6700 c-12 -4 -31 -21 -43 -36 -21 -27 -21 -29 -21 -603 0 -440 3 -582 13 -601 23 -46 69 -60 205 -60 l122 0 0 -129 c0 -122 1 -131 22 -145 28 -20 29 -19 229 140 l166 134 549 0 c503 0 552 2 584 18 19 9 40 28 47 42 10 19 13 161 13 603 l0 579 -34 34 -34 34 -898 -1 c-495 0 -909 -4 -920 -9z m1804 -72 c17 -17 17 -1129 0 -1146 -9 -9 -150 -12 -574 -12 l-562 0 -161 -131 -161 -130 0 130 0 131 -151 0 c-84 0 -159 5 -170 10 -18 10 -19 27 -19 573 0 425 3 566 12 575 17 17 1769 17 1786 0z"/>
<path d="M2825 6427 c-61 -147 -244 -674 -239 -689 4 -13 13 -18 31 -16 23 3 34 27 154 357 133 366 137 381 87 381 -12 0 -24 -12 -33 -33z"/>
<path d="M2378 6223 c-66 -65 -124 -126 -130 -136 -8 -16 9 -38 114 -143 100 -102 127 -124 148 -122 51 6 36 36 -74 147 l-106 106 105 105 c58 58 105 112 105 122 0 9 -9 22 -21 28 -18 10 -33 -1 -141 -107z"/>
<path d="M2928 6329 c-10 -5 -18 -18 -18 -27 0 -10 47 -64 105 -122 l105 -105 -106 -106 c-110 -110 -125 -140 -75 -147 19 -3 47 19 138 110 63 62 119 121 124 131 9 16 -9 38 -117 148 -71 71 -130 129 -134 129 -3 0 -13 -5 -22 -11z"/>
<path d="M7876 6668 c-6 -25 -46 -361 -46 -380 0 -6 -10 -2 -22 10 -62 58 -163 76 -254 45 -68 -23 -170 -126 -212 -214 -86 -181 -83 -400 7 -490 100 -100 261 -59 377 95 l47 61 -7 -92 c-8 -103 -3 -113 67 -113 33 0 36 2 41 38 10 60 126 1025 126 1045 0 14 -10 17 -60 17 -54 0 -60 -2 -64 -22z m-131 -427 c68 -31 71 -38 57 -159 -10 -91 -18 -119 -51 -188 -86 -172 -203 -248 -286 -182 -39 31 -55 77 -55 161 0 127 45 251 116 323 65 65 141 81 219 45z"/>
<path d="M7077 6669 c-27 -16 -50 -68 -42 -98 27 -109 175 -93 175 19 0 63 -79 110 -133 79z"/>
<path d="M5456 6348 c-21 -172 -50 -412 -65 -533 l-27 -220 64 -3 c36 -2 66 -1 68 1 2 2 16 103 31 225 l26 222 63 0 c34 0 69 -3 78 -6 9 -3 64 -98 122 -210 58 -112 112 -211 120 -219 11 -10 36 -15 85 -15 38 0 69 3 69 6 0 8 -207 391 -236 437 -17 26 -20 37 -11 37 8 0 41 14 75 31 118 58 182 166 182 302 -1 116 -42 181 -145 229 -46 21 -66 23 -256 26 l-206 3 -37 -313z m415 189 c46 -19 86 -68 95 -115 9 -49 -10 -137 -39 -181 -14 -21 -48 -49 -78 -66 -48 -26 -65 -29 -166 -33 -102 -4 -113 -3 -113 13 0 22 40 353 46 384 5 24 5 24 113 18 59 -3 123 -12 142 -20z"/>
<path d="M6545 6347 c-175 -45 -325 -205 -365 -388 -7 -32 -11 -93 -8 -141 4 -71 9 -93 35 -139 83 -147 271 -125 389 47 20 29 39 54 42 54 2 0 1 -36 -3 -80 -9 -97 -1 -110 61 -110 24 0 44 2 44 5 0 10 80 662 85 696 6 35 5 36 -37 48 -62 19 -185 23 -243 8z m145 -105 c0 -49 -31 -252 -43 -288 -21 -58 -66 -143 -95 -182 -31 -41 -100 -82 -136 -82 -84 0 -122 69 -114 208 12 206 152 362 325 362 54 0 63 -3 63 -18z"/>
<path d="M8353 6340 c-64 -22 -97 -45 -151 -104 -82 -89 -127 -214 -125 -351 1 -166 78 -270 217 -296 114 -21 230 16 334 106 l43 38 -22 23 c-30 32 -53 30 -99 -6 -55 -43 -106 -62 -171 -62 -114 0 -177 69 -179 195 0 45 1 47 29 47 51 0 204 30 274 55 124 43 177 101 177 196 0 74 -27 115 -99 152 -66 33 -149 36 -228 7z m162 -84 c78 -33 72 -126 -13 -173 -37 -21 -159 -54 -244 -66 -34 -5 -38 -3 -38 16 0 30 41 115 75 155 57 68 150 97 220 68z"/>
<path d="M9073 6341 c-69 -23 -123 -60 -166 -113 -160 -197 -156 -507 8 -603 61 -36 132 -49 211 -36 82 13 140 40 204 98 48 43 49 45 34 69 -21 31 -54 31 -92 -1 -78 -65 -206 -88 -274 -48 -47 27 -77 87 -80 158 l-3 59 90 13 c249 36 371 101 391 209 11 59 -4 105 -49 150 -65 65 -168 82 -274 45z m176 -99 c32 -24 40 -82 16 -119 -9 -14 -41 -36 -70 -49 -51 -24 -253 -69 -262 -60 -9 9 28 104 55 145 68 100 187 138 261 83z"/>
<path d="M9885 6336 c-56 -26 -120 -84 -161 -146 -15 -22 -28 -40 -30 -40 -1 0 -2 44 -1 98 l2 97 -50 0 -50 0 -60 -500 -60 -500 58 -3 c33 -2 61 -1 63 1 2 2 11 60 19 128 8 68 17 138 20 156 l6 31 48 -32 c174 -117 395 22 477 299 21 71 24 229 6 293 -15 51 -65 110 -109 128 -49 21 -121 17 -178 -10z m126 -112 c83 -79 52 -334 -56 -462 -76 -90 -218 -102 -288 -24 -17 18 -17 26 -4 129 12 87 22 124 51 184 88 179 213 253 297 173z"/>
<path d="M7036 6328 c-3 -13 -26 -198 -51 -413 -25 -214 -52 -408 -61 -431 -17 -47 -45 -64 -104 -64 -42 0 -40 2 -54 -72 -4 -19 21 -28 84 -28 83 1 162 55 196 136 11 27 114 815 114 874 0 18 -6 20 -60 20 -54 0 -60 -2 -64 -22z"/>
</g>
</svg>